HIERARCHY
ROOT Hips
{
	OFFSET 0.00 0.00 0.00
	CHANNELS 6 Xposition Yposition Zposition Xrotation Yrotation Zrotation
	JOINT Spine
	{
		OFFSET 2.945186 -25.628684 1.109128
		CHANNELS 3 Xrotation Yrotation Zrotation
		JOINT Spine1
		{
			OFFSET 2.945186 -25.628684 1.109128
			CHANNELS 3 Xrotation Yrotation Zrotation
			JOINT Neck
			{
				OFFSET 0.000000 0.000000 0.000000
				CHANNELS 3 Xrotation Yrotation Zrotation
				JOINT Head
				{
					OFFSET 11.811784 -11.089606 23.844523
					CHANNELS 3 Xrotation Yrotation Zrotation
					End Site
					{
						OFFSET 0.000000 15.000000 0.000000
					}
				}
			}
			JOINT LeftShoulder
			{
				OFFSET 10.210514 4.159964 -8.187323
				CHANNELS 3 Xrotation Yrotation Zrotation
				JOINT LeftArm
				{
					OFFSET 0.626653 19.482780 -7.789002
					CHANNELS 3 Xrotation Yrotation Zrotation
					JOINT LeftForeArm
					{
						OFFSET 10.608538 18.027708 1.759096
						CHANNELS 3 Xrotation Yrotation Zrotation
						JOINT LeftHand
						{
							OFFSET 0.980963 2.636260 0.185302
							CHANNELS 3 Xrotation Yrotation Zrotation
							End Site
							{
								OFFSET -5.000000 0.000000 0.000000
							}
						}
					}
				}
			}
			JOINT RightShoulder
			{
				OFFSET -10.210514 -4.159964 8.187323
				CHANNELS 3 Xrotation Yrotation Zrotation
				JOINT RightArm
				{
					OFFSET -10.609265 24.884124 14.645813
					CHANNELS 3 Xrotation Yrotation Zrotation
					JOINT RightForeArm
					{
						OFFSET 15.374407 -0.825575 14.695457
						CHANNELS 3 Xrotation Yrotation Zrotation
						JOINT RightHand
						{
							OFFSET 7.074624 -3.181635 4.525917
							CHANNELS 3 Xrotation Yrotation Zrotation
							End Site
							{
								OFFSET 5.000000 0.000000 0.000000
							}
						}
					}
				}
			}
		}
	}
	JOINT LeftUpLeg
	{
		OFFSET 7.429526 0.606695 -9.876685
		CHANNELS 3 Xrotation Yrotation Zrotation
		JOINT LeftLeg
		{
			OFFSET 15.514875 32.862122 9.244242
			CHANNELS 3 Xrotation Yrotation Zrotation
			JOINT LeftFoot
			{
				OFFSET -8.890457 36.504891 -13.720885
				CHANNELS 3 Xrotation Yrotation Zrotation
				End Site
				{
					OFFSET 0.000000 -5.000000 5.000000
				}
			}
		}
	}
	JOINT RightUpLeg
	{
		OFFSET -7.429526 -0.606695 9.876685
		CHANNELS 3 Xrotation Yrotation Zrotation
		JOINT RightLeg
		{
			OFFSET -5.446790 32.188600 1.202190
			CHANNELS 3 Xrotation Yrotation Zrotation
			JOINT RightFoot
			{
				OFFSET -12.155769 36.220580 -12.360753
				CHANNELS 3 Xrotation Yrotation Zrotation
				End Site
				{
					OFFSET 0.000000 -5.000000 5.000000
				}
			}
		}
	}
}
MOTION
Frames: 8
Frame Time: 0.033333
0.108884 -0.154546 -0.158346 2.461851 69.364121 -82.999337 2.461851 69.364121 -82.999337 0.000000 0.000000 0.000000 55.804840 26.352284 -22.623909 0.000000 0.000000 0.000000 -21.780780 175.400254 68.145225 4.807098 80.584944 59.184235 3.769029 79.302956 69.259087 0.000000 0.000000 0.000000 28.431452 -35.919158 53.991976 43.665335 46.293465 -2.222972 30.261522 57.391346 -20.748452 0.000000 0.000000 0.000000 14.272120 59.212208 61.208035 -20.061694 -147.058752 65.873882 0.000000 0.000000 0.000000 2.108953 -77.553499 80.168984 -17.927935 -135.479043 64.422633 0.000000 0.000000 0.000000
0.108508 -0.155310 -0.158320 2.334387 70.314390 -83.055054 2.334387 70.314390 -83.055054 0.000000 0.000000 0.000000 55.617751 26.971255 -22.179407 0.000000 0.000000 0.000000 -22.096192 174.612221 67.800547 4.330705 81.451995 59.467054 3.814292 78.652330 70.239592 0.000000 0.000000 0.000000 28.137809 -36.049307 54.317933 43.940357 46.058460 0.374958 30.848985 56.971392 -19.817771 0.000000 0.000000 0.000000 13.795143 60.169156 61.356677 -20.074055 -146.539149 65.705779 0.000000 0.000000 0.000000 1.892316 -79.146378 79.900159 -18.171180 -135.931604 64.276226 0.000000 0.000000 0.000000
0.107799 -0.156851 -0.158435 2.104539 72.074696 -83.147338 2.104539 72.074696 -83.147338 0.000000 0.000000 0.000000 55.275049 28.014998 -21.411201 0.000000 0.000000 0.000000 -22.685143 173.298935 67.150018 3.364598 83.255504 60.017700 3.545094 78.449098 72.012930 0.000000 0.000000 0.000000 27.825033 -36.051895 54.736092 44.486281 45.383743 3.888145 31.764843 56.235365 -18.702830 0.000000 0.000000 0.000000 12.722834 62.300643 61.719102 -20.084933 -145.497263 65.372769 0.000000 0.000000 0.000000 1.475327 -81.948982 79.406993 -18.646211 -136.750048 63.962663 0.000000 0.000000 0.000000
0.107682 -0.156032 -0.158577 1.991447 72.897041 -83.213947 1.991447 72.897041 -83.213947 0.000000 0.000000 0.000000 55.118339 28.779656 -20.618631 0.000000 0.000000 0.000000 -22.573594 171.269064 67.146873 3.321658 83.231258 60.554019 5.162939 72.125323 72.951393 0.000000 0.000000 0.000000 26.819752 -36.819500 55.694182 44.095215 44.952799 10.493746 32.868593 55.686310 -15.691645 0.000000 0.000000 0.000000 13.298715 61.357061 61.322765 -19.980603 -145.283968 65.436368 0.000000 0.000000 0.000000 1.455039 -82.328729 79.034308 -18.496586 -136.622242 64.120806 0.000000 0.000000 0.000000
0.107756 -0.155299 -0.157676 1.950887 73.090907 -83.278445 1.950887 73.090907 -83.278445 0.000000 0.000000 0.000000 54.863703 29.346656 -20.251596 0.000000 0.000000 0.000000 -22.151978 168.935351 67.405509 3.360957 83.006759 61.215289 7.185682 63.912005 73.474278 0.000000 0.000000 0.000000 25.007512 -37.777683 57.666688 42.485617 44.719956 18.096900 34.127366 54.932562 -12.447764 0.000000 0.000000 0.000000 13.597318 60.765698 61.224536 -19.892504 -144.844632 65.407092 0.000000 0.000000 0.000000 1.560207 -81.941115 78.801031 -18.033545 -135.831888 64.431944 0.000000 0.000000 0.000000
0.107990 -0.154858 -0.156034 1.954462 72.895895 -83.340938 1.954462 72.895895 -83.340938 0.000000 0.000000 0.000000 54.480370 29.888830 -20.152334 0.000000 0.000000 0.000000 -21.588749 166.364903 67.752237 3.364286 82.840548 61.909691 9.407103 55.028554 73.431207 0.000000 0.000000 0.000000 22.963328 -38.741391 59.987054 40.294833 44.238110 25.487604 35.376347 54.082039 -9.282373 0.000000 0.000000 0.000000 13.675030 60.452485 61.353655 -19.721367 -144.045512 65.363107 0.000000 0.000000 0.000000 1.791369 -80.857400 78.653704 -17.327028 -134.454583 64.833143 0.000000 0.000000 0.000000
0.108418 -0.154873 -0.153736 1.978844 72.525897 -83.396590 1.978844 72.525897 -83.396590 0.000000 0.000000 0.000000 54.118627 30.364987 -20.107660 0.000000 0.000000 0.000000 -21.075645 163.954406 68.026521 3.403504 82.595816 62.568755 11.070269 47.751467 73.406155 0.000000 0.000000 0.000000 21.072413 -39.614481 62.177663 38.385405 44.249572 29.902603 35.948066 53.634448 -8.077904 0.000000 0.000000 0.000000 13.451985 60.614514 61.699553 -19.672249 -143.341707 65.188169 0.000000 0.000000 0.000000 1.942851 -80.181303 78.532834 -16.920423 -133.584895 65.029513 0.000000 0.000000 0.000000
0.109348 -0.155025 -0.151920 2.020690 72.056805 -83.427850 2.020690 72.056805 -83.427850 0.000000 0.000000 0.000000 53.807257 30.764009 -20.082742 0.000000 0.000000 0.000000 -20.758931 162.328380 68.161584 3.241380 82.851170 62.976872 11.706008 44.791103 73.387985 0.000000 0.000000 0.000000 20.250753 -39.932697 63.166766 37.960725 44.218459 30.875381 35.767226 53.806366 -8.189834 0.000000 0.000000 0.000000 13.265461 60.764523 61.976999 -19.552093 -142.728143 65.130505 0.000000 0.000000 0.000000 2.008845 -79.891628 78.479147 -16.666689 -132.966022 65.114778 0.000000 0.000000 0.000000
